<svg xmlns="http://www.w3.org/2000/svg" viewBox="0 0 800 1300">
    <!-- 背景 -->
    <rect width="800" height="1300" fill="#ffffff"/>
    
    <!-- Hosted UI Flow -->
    <g transform="translate(0,0)">
        <!-- タイトル -->
        <text x="250" y="30" font-size="16" font-weight="bold" font-family="Arial">Cognito Hosted UI Authentication Flow</text>
        
        <!-- アクターとシステムのラベル -->
        <g font-family="Arial" font-size="14">
            <text x="50" y="60">Browser</text>
            <text x="250" y="60">React App</text>
            <text x="450" y="60">Cognito Hosted UI</text>
            <text x="650" y="60">FastAPI Backend</text>

            <!-- ライフライン -->
            <line x1="80" y1="70" x2="80" y2="550" stroke="#000000" stroke-dasharray="5,5"/>
            <line x1="280" y1="70" x2="280" y2="550" stroke="#000000" stroke-dasharray="5,5"/>
            <line x1="480" y1="70" x2="480" y2="550" stroke="#000000" stroke-dasharray="5,5"/>
            <line x1="680" y1="70" x2="680" y2="550" stroke="#000000" stroke-dasharray="5,5"/>
        </g>

        <!-- メッセージフロー -->
        <g stroke="#000000" fill="none" font-family="Arial" font-size="12">
            <line x1="80" y1="100" x2="280" y2="100" stroke="#000000" marker-end="url(#arrow)"/>
            <text x="120" y="95">1. Click Login</text>

            <line x1="280" y1="130" x2="480" y2="130" stroke="#000000" marker-end="url(#arrow)"/>
            <text x="300" y="125">2. Redirect to Hosted UI</text>

            <line x1="80" y1="160" x2="480" y2="160" stroke="#000000" marker-end="url(#arrow)"/>
            <text x="200" y="155">3. Enter Credentials</text>

            <line x1="480" y1="190" x2="280" y2="190" stroke="#000000" marker-end="url(#arrow)"/>
            <text x="300" y="185">4. Return Auth Code</text>

            <line x1="280" y1="220" x2="480" y2="220" stroke="#000000" marker-end="url(#arrow)"/>
            <text x="300" y="215">5. Exchange Code for Tokens</text>

            <line x1="480" y1="250" x2="280" y2="250" stroke="#000000" marker-end="url(#arrow)"/>
            <text x="320" y="245">6. Return Tokens</text>

            <line x1="280" y1="280" x2="680" y2="280" stroke="#000000" marker-end="url(#arrow)"/>
            <text x="400" y="275">7. API Call with Bearer Token</text>

            <line x1="680" y1="310" x2="280" y2="310" stroke="#000000" marker-end="url(#arrow)"/>
            <text x="400" y="305">8. Protected Resource Response</text>
        </g>
    </g>

    <!-- スペーサー -->
    <rect x="0" y="600" width="800" height="100" fill="#ffffff"/>
    
    <!-- Direct API Flow -->
    <g transform="translate(0,700)">
        <!-- タイトル -->
        <text x="250" y="30" font-size="16" font-weight="bold" font-family="Arial">Cognito Direct API Authentication Flow</text>
        
        <!-- アクターとシステムのラベル -->
        <g font-family="Arial" font-size="14">
            <text x="50" y="60">Browser</text>
            <text x="250" y="60">React App</text>
            <text x="450" y="60">Cognito Auth API</text>
            <text x="650" y="60">FastAPI Backend</text>

            <!-- ライフライン -->
            <line x1="80" y1="70" x2="80" y2="550" stroke="#000000" stroke-dasharray="5,5"/>
            <line x1="280" y1="70" x2="280" y2="550" stroke="#000000" stroke-dasharray="5,5"/>
            <line x1="480" y1="70" x2="480" y2="550" stroke="#000000" stroke-dasharray="5,5"/>
            <line x1="680" y1="70" x2="680" y2="550" stroke="#000000" stroke-dasharray="5,5"/>
        </g>

        <!-- メッセージフロー -->
        <g stroke="#000000" fill="none" font-family="Arial" font-size="12">
            <line x1="80" y1="100" x2="280" y2="100" stroke="#000000" marker-end="url(#arrow)"/>
            <text x="120" y="95">1. Enter Credentials</text>

            <line x1="280" y1="130" x2="480" y2="130" stroke="#000000" marker-end="url(#arrow)"/>
            <text x="300" y="125">2. InitiateAuth API Call</text>

            <line x1="480" y1="160" x2="280" y2="160" stroke="#000000" marker-end="url(#arrow)"/>
            <text x="320" y="155">3. Challenge (if needed)</text>

            <line x1="280" y1="190" x2="480" y2="190" stroke="#000000" marker-end="url(#arrow)"/>
            <text x="290" y="185">4. RespondToAuthChallenge</text>

            <line x1="480" y1="220" x2="280" y2="220" stroke="#000000" marker-end="url(#arrow)"/>
            <text x="320" y="215">5. Return Tokens</text>

            <line x1="280" y1="250" x2="280" y2="270" stroke="#000000" marker-end="url(#arrow)"/>
            <text x="290" y="265">6. Store Tokens</text>

            <line x1="280" y1="300" x2="680" y2="300" stroke="#000000" marker-end="url(#arrow)"/>
            <text x="400" y="295">7. API Call with Bearer Token</text>

            <line x1="680" y1="330" x2="680" y2="350" stroke="#000000" marker-end="url(#arrow)"/>
            <text x="690" y="345">8. Validate JWT</text>

            <line x1="680" y1="380" x2="280" y2="380" stroke="#000000" marker-end="url(#arrow)"/>
            <text x="400" y="375">9. Protected Resource Response</text>
        </g>
    </g>

    <!-- 矢印のマーカー定義 -->
    <defs>
        <marker id="arrow" markerWidth="10" markerHeight="10" refX="9" refY="3" orient="auto" markerUnits="strokeWidth">
            <path d="M0,0 L0,6 L9,3 z" fill="#000000"/>
        </marker>
    </defs>
</svg>
